# xmcd
#
# Track frame offsets:
#	150
#	14846
#	33053
#	52050
#	69139
#	84259
#	103060
#	122464
#	139347
#	155536
#	172096
#	187719
#	201589
#
# Disc length: 2887 seconds
#
# Revision: 1
# Processed by: cddbd v1.5.2PL0 Copyright (c) Steve Scherf et al.
# Submitted via: audiograbber 1.83.01
#
DISCID=ae0b450d
DTITLE=Trisha Yearwood - Heaven, Heartache And The Power Of Love 
DYEAR=2007
DGENRE=Country
TTITLE0=Heaven, Heartache and the Powe
TTITLE1=This Is Me You're Talking To
TTITLE2=They Call It Falling For A Rea
TTITLE3=Nothin' 'Bout Memphis
TTITLE4=We Tried
TTITLE5=Let The Wind Chase You
TTITLE6=The Dreaming Fields
TTITLE7=Cowboys Are My Weakness
TTITLE8=Help Me
TTITLE9=Not A Bad Thing
TTITLE10=Nothin' About You Is Good For
TTITLE11=Drown Me
TTITLE12=Sing You Back To Me
EXTD=
EXTT0=
EXTT1=
EXTT2=
EXTT3=
EXTT4=
EXTT5=
EXTT6=
EXTT7=
EXTT8=
EXTT9=
EXTT10=
EXTT11=
EXTT12=
PLAYORDER=
